# xmcd
#
# Track frame offsets:
# 150
# 30846
# 54632
# 72644
# 91822
# 109754
# 141093
# 162187
# 181426
# 246688
# 266895
#
# Disc length: 3772 seconds
#
# Revision: 1
# Processed by: cddbd v1.4PL0 Copyright (c) Steve Scherf et al.
# Submitted via: PegasusMail 3.12c
#
DISCID=9f0eba0b
DTITLE=Nick Cave And The Bad Seeds - Murder Ballads
DYEAR=1900
DGENRE=Rock
TTITLE0=Song of joy
TTITLE1=Stagger lee
TTITLE2=Henry lee
TTITLE3=Lovely creature
TTITLE4=Where the wild roses grow
TTITLE5=The curse of millhaven
TTITLE6=The kindness of strangers
TTITLE7=Crow jane
TTITLE8=O'mally's bar
TTITLE9=Death is not the end
TTITLE10=Knoxville girl
EXTD=
EXTT0=
EXTT1=
EXTT2=
EXTT3=
EXTT4=
EXTT5=
EXTT6=
EXTT7=
EXTT8=
EXTT9=
EXTT10=
PLAYORDER=
